<?xml version="1.0" encoding="UTF-8"?>
<svg xmlns="http://www.w3.org/2000/svg" version="1.1" viewBox="0 0 256 256">
  <path d="M197.7,98.88c-1.06.82-19.78,11.37-19.78,34.82,0,27.13,23.82,36.72,24.53,36.96-.11.58-3.78,13.14-12.56,25.94-7.82,11.26-15.99,22.5-28.42,22.5s-15.63-7.22-29.98-7.22-18.95,7.46-30.32,7.46-19.3-10.42-28.42-23.21c-10.56-15.02-19.1-38.37-19.1-60.52,0-35.53,23.1-54.38,45.84-54.38,12.08,0,22.15,7.93,29.74,7.93s18.48-8.41,32.22-8.41c5.21,0,23.93.48,36.25,18.13h0ZM154.93,65.7c5.68-6.74,9.71-16.1,9.71-25.46,0-1.3-.11-2.61-.35-3.67-9.25.35-20.25,6.16-26.89,13.86-5.21,5.92-10.07,15.28-10.07,24.77,0,1.43.24,2.85.35,3.31.58.11,1.54.24,2.49.24,8.3,0,18.74-5.56,24.77-13.03h0Z"/>
</svg>
